# xmcd
#
# Track frame offsets:
#	150
#	11361
#	28460
#	43896
#	54094
#	67582
#	80460
#	93128
#	105857
#	122726
#	136985
#
# Disc length: 2034 seconds
#
# Revision: 0
# Processed by: cddbd v1.5.2PL0 Copyright (c) Steve Scherf et al.
# Submitted via: audiograbber 1.83.01
#
DISCID=7c07f00b
DTITLE=Manon Desrosiers - L'envolée
DYEAR=1900
DGENRE=Country
TTITLE0=Jambalaya(Hank Williams-Hank Williams)
TTITLE1=Jamais Assez Loin(Zachary Richard-Zachary Richard)
TTITLE2=Mon Amour Mon Ami(Paul Daraiche-Paul Daraiche)
TTITLE3=Un Coin Du Ciel(Manon Desrosiers-Marcel Martel)
TTITLE4=Un Soir Sans Toi(In Waapeer)
TTITLE5=Belle Gaspésie(Marcel Martel-Marcel Martel)
TTITLE6=Quand Tu Liras Cette Lettre(Dallas Frazier-Dallas Frazier)
TTITLE7=Guitar Cadillac(André Proulx)
TTITLE8=Always On My Mind(Willie Nelson-Willie Nelson)
TTITLE9=As-Tu Déjà Pleuré(Denis Champoux-Denis Champoux)
TTITLE10=Le Temps Passe(Irène Savoie-Claude Saindon)
EXTD=
EXTT0=
EXTT1=
EXTT2=
EXTT3=
EXTT4=
EXTT5=
EXTT6=
EXTT7=
EXTT8=
EXTT9=
EXTT10=
PLAYORDER=
